<svg width="16" height="16" viewBox="0 0 16 16" fill="none" xmlns="http://www.w3.org/2000/svg">
<path d="M1 2C1.55228 2 2 1.55228 2 1C2 0.447715 1.55228 0 1 0C0.447715 0 0 0.447715 0 1C0 1.55228 0.447715 2 1 2Z" fill="#505050"/>
<path d="M1 10C1.55228 10 2 9.55228 2 9C2 8.44772 1.55228 8 1 8C0.447715 8 0 8.44772 0 9C0 9.55228 0.447715 10 1 10Z" fill="#505050"/>
<path d="M9 10C9.55228 10 10 9.55228 10 9C10 8.44772 9.55228 8 9 8C8.44772 8 8 8.44772 8 9C8 9.55228 8.44772 10 9 10Z" fill="#505050"/>
<path d="M9 2C9.55228 2 10 1.55228 10 1C10 0.447715 9.55228 0 9 0C8.44772 0 8 0.447715 8 1C8 1.55228 8.44772 2 9 2Z" fill="#505050"/>
</svg>
